<svg width="47" height="47" viewBox="0 0 47 47" fill="none" xmlns="http://www.w3.org/2000/svg">
<circle cx="23.5" cy="23.5" r="23.5" fill="#1ABBAC" fill-opacity="0.1"/>
<path d="M21.2725 36.865C14.86 35.7175 10 30.1825 10 23.5C10 16.075 16.075 10 23.5 10C30.925 10 37 16.075 37 23.5C37 30.1825 32.14 35.7175 25.7275 36.865L24.985 36.2575H22.015L21.2725 36.865Z" fill="url(#paint0_linear_33_427)"/>
<path d="M28.7652 27.2799L29.3727 23.4999H25.7952V20.8674C25.7952 19.7874 26.2002 18.9774 27.8202 18.9774H29.5752V15.5349C28.6302 15.3999 27.5502 15.2649 26.6052 15.2649C23.5002 15.2649 21.3402 17.1549 21.3402 20.5299V23.4999H17.9652V27.2799H21.3402V36.7974C22.0827 36.9324 22.8252 36.9999 23.5677 36.9999C24.3102 36.9999 25.0527 36.9324 25.7952 36.7974V27.2799H28.7652Z" fill="white"/>
<defs>
<linearGradient id="paint0_linear_33_427" x1="23.5007" y1="36.061" x2="23.5007" y2="9.99503" gradientUnits="userSpaceOnUse">
<stop stop-color="#0062E0"/>
<stop offset="1" stop-color="#19AFFF"/>
</linearGradient>
</defs>
</svg>
